<svg xmlns="http://www.w3.org/2000/svg" viewBox="0 0 120 120" fill="none">
  <!-- Background -->
  <rect width="120" height="120" rx="28" fill="#0F766E"/>
  <!-- D letter stylized as medical cross -->
  <path d="M35 30 L35 90 L60 90 C80 90 90 75 90 60 C90 45 80 30 60 30 L35 30Z" fill="none" stroke="#FFFFFF" stroke-width="5" stroke-linejoin="round"/>
  <path d="M35 30 L35 90" stroke="#FFFFFF" stroke-width="5" stroke-linecap="round"/>
  <!-- Medical cross inside D -->
  <rect x="52" y="48" width="20" height="6" rx="3" fill="#5EEAD4"/>
  <rect x="59" y="41" width="6" height="20" rx="3" fill="#5EEAD4"/>
  <!-- G small accent -->
  <path d="M70 72 C74 72 78 76 78 80 C78 84 74 88 70 88 C66 88 62 84 62 80" stroke="#5EEAD4" stroke-width="3" stroke-linecap="round" fill="none"/>
  <line x1="70" y1="80" x2="78" y2="80" stroke="#5EEAD4" stroke-width="3" stroke-linecap="round"/>
</svg>
